<svg width="26" height="23" viewBox="0 0 26 23" fill="none" xmlns="http://www.w3.org/2000/svg">
<path d="M0.5 1.21691C0.682081 0.808181 0.990445 0.659869 1.43341 0.665821C2.78434 0.685166 4.13576 0.672269 5.48717 0.673261C6.01873 0.673261 6.25417 0.85828 6.37653 1.39151C6.54491 2.12861 6.70399 2.86819 6.87481 3.64348C6.97172 3.64348 7.07402 3.64348 7.17681 3.64348C12.9892 3.64348 18.8016 3.65043 24.6136 3.63257C25.2087 3.63059 25.6512 4.05171 25.4515 4.74913C24.4946 8.08988 23.5597 11.4376 22.6165 14.7823C22.4516 15.3676 22.245 15.5229 21.6361 15.5229C17.3298 15.5229 13.0235 15.5229 8.71716 15.5229C8.27273 15.5229 7.9903 15.691 7.87675 16.0194C7.71767 16.4802 8.01624 16.945 8.51256 17.003C8.60899 17.0144 8.70786 17.0095 8.80526 17.0095C13.1277 17.01 17.4507 17.0095 21.7732 17.01C22.2441 17.01 22.5647 17.2947 22.5788 17.7188C22.593 18.1444 22.2842 18.4822 21.8618 18.4911C21.504 18.4986 21.1462 18.4926 20.781 18.5095C21.3757 18.6563 21.8632 18.9653 22.2029 19.4782C22.5495 20.0015 22.6586 20.5834 22.5275 21.2024C22.3038 22.2585 21.3263 23.0055 20.2573 22.9445C19.1957 22.8839 18.3342 22.064 18.2006 20.9782C18.0904 20.0849 18.5407 18.8864 20.0292 18.5045C16.7987 18.5045 13.6123 18.5045 10.4254 18.5045C11.0088 18.6543 11.4959 18.9564 11.836 19.4643C12.1801 19.9777 12.2937 20.5467 12.1792 21.1612C11.9868 22.1925 11.0441 22.9648 9.99222 22.9484C8.91784 22.9321 8.02016 22.133 7.85423 21.0452C7.67753 19.8864 8.33342 18.9514 9.67945 18.4936C9.31529 18.4936 8.9986 18.4941 8.68143 18.4936C7.55027 18.4921 6.69566 17.8488 6.42254 16.7932C6.16753 15.8081 6.6291 14.8131 7.59286 14.2674C7.62027 14.2521 7.64523 14.2322 7.67851 14.2094C6.79747 10.1926 5.9179 6.18017 5.0354 2.15639C4.26302 2.15639 3.50679 2.15639 2.75057 2.15639C2.31935 2.15639 1.88666 2.13555 1.45642 2.16234C1.00758 2.18962 0.685508 2.03635 0.5 1.61274C0.5 1.4808 0.5 1.34885 0.5 1.21691ZM23.801 5.13554C18.2573 5.13554 12.7401 5.13554 7.2003 5.13554C7.85227 8.10824 8.50082 11.0675 9.14936 14.0244C13.2095 14.0244 17.2515 14.0244 21.2945 14.0244C22.13 11.0621 22.9616 8.11369 23.801 5.13554ZM10.7568 20.7421C10.771 20.3527 10.4376 19.9961 10.0461 19.9817C9.66183 19.9673 9.3099 20.3051 9.29571 20.7019C9.28152 21.0913 9.61484 21.4479 10.0064 21.4623C10.3906 21.4767 10.7421 21.1394 10.7568 20.7421ZM20.4188 19.9832C20.037 19.9574 19.6797 20.2852 19.6533 20.6855C19.6279 21.0724 19.9514 21.4345 20.3464 21.4613C20.7282 21.4871 21.0855 21.1593 21.1119 20.759C21.1374 20.3716 20.8138 20.01 20.4188 19.9832Z" fill="#2C2C2C"/>
</svg>
